<svg xmlns="http://www.w3.org/2000/svg" viewBox="0 0 32 30" width="32" height="30">
	<style>
		tspan { white-space:pre }
		.shp0 { fill: #222222 } 
	</style>
	<g id="Header ">
		<g id="Live cart">
			<g id="Icon">
				<path id="Forma 1" class="shp0" d="M1.18,3.36h3.39l4.83,17.46c0.14,0.51 0.61,0.87 1.14,0.87h14.85c0.47,0 0.89,-0.28 1.08,-0.71l5.41,-12.41c0.16,-0.37 0.12,-0.79 -0.1,-1.12c-0.22,-0.33 -0.59,-0.53 -0.99,-0.53h-16.41c-0.65,0 -1.18,0.53 -1.18,1.18c0,0.65 0.53,1.18 1.18,1.18h14.6l-4.38,10.05h-13.18l-4.83,-17.46c-0.14,-0.51 -0.61,-0.87 -1.14,-0.87h-4.28c-0.65,0 -1.18,0.53 -1.18,1.18c0,0.65 0.53,1.18 1.18,1.18zM9.43,30c1.48,0 2.68,-1.2 2.68,-2.68c0,-1.48 -1.2,-2.68 -2.68,-2.68c-1.48,0 -2.68,1.2 -2.68,2.68c0,1.48 1.2,2.68 2.68,2.68zM26.2,30c0.06,0 0.14,0 0.2,0c0.71,-0.06 1.36,-0.37 1.83,-0.93c0.47,-0.53 0.69,-1.22 0.65,-1.95c-0.1,-1.46 -1.38,-2.58 -2.86,-2.48c-1.48,0.1 -2.58,1.4 -2.49,2.86c0.1,1.4 1.26,2.5 2.66,2.5z" />
			</g>
		</g>
	</g>
</svg>